<svg xmlns="http://www.w3.org/2000/svg" xmlns:xlink="http://www.w3.org/1999/xlink" width="638" height="472.704" viewBox="0 0 638 472.704">
  <defs>
    <linearGradient id="linear-gradient" x1="1" y1="0.5" x2="0" y2="0.5" gradientUnits="objectBoundingBox">
      <stop offset="0" stop-color="#fff"/>
      <stop offset="1" stop-color="#e1e4fc"/>
    </linearGradient>
    <linearGradient id="linear-gradient-2" x1="1" y1="0.5" x2="0" y2="0.5" gradientUnits="objectBoundingBox">
      <stop offset="0" stop-color="#fff"/>
      <stop offset="1" stop-color="#d5f8fc"/>
    </linearGradient>
    <linearGradient id="linear-gradient-3" x1="1" y1="0.5" x2="0" y2="0.5" gradientUnits="objectBoundingBox">
      <stop offset="0" stop-color="#fff"/>
      <stop offset="1" stop-color="#ffe8f4"/>
    </linearGradient>
  </defs>
  <g id="Group_4951" data-name="Group 4951" transform="translate(10768 6804.657)">
    <path id="Path_5633" data-name="Path 5633" d="M3825.08,1939.279l.126-.1c2.424,2.786,4.863,5.56,7.249,8.382,2.008,2.376,4.045,4.727,6.083,7.078l-1.317.957q-3.633-4.841-7.243-9.7C3828.343,1943.689,3826.608,1941.561,3825.08,1939.279Z" transform="translate(-14498.889 -8596.936)" fill="#fff0f0"/>
    <path id="Path_5634" data-name="Path 5634" d="M3912.6,1800.783c-2.324-2.791-4.584-5.634-6.964-8.382-1.249-1.436-2.4-2.994-3.614-4.484-2.519-3.1-5.083-6.163-7.6-9.264-1.182-1.455-2.31-2.952-3.525-4.381a7.049,7.049,0,0,1-1.326-1.772l20.855,23.7,10.186,11.758c2.582,2.971,5.213,5.9,7.7,8.959,4.413,5.423,8.836,10.846,13.019,16.454l-.34.319q-7.908-8.246-15.266-16.99C3921.292,1811.444,3917,1806.075,3912.6,1800.783Z" transform="translate(-14611.964 -8456.842)" fill="#fff0f0"/>
    <path id="Path_5635" data-name="Path 5635" d="M3666.669,1841.664q7.083,8.168,14.164,16.349l-1.155.659-2.637-3.2q-5.456-6.635-10.91-13.274c-1.665-2.019-3.33-4.04-4.967-6.078-1.05-1.31-2.266-2.472-3.228-3.852-.592-.849-1.257-1.645-1.936-2.528a.593.593,0,0,1,.509.3q2.644,3.01,5.276,6.031Q3664.221,1838.861,3666.669,1841.664Z" transform="translate(-14314.215 -8504.952)" fill="#fff0f0"/>
    <path id="Path_5636" data-name="Path 5636" d="M3905.206,1673.8a7.975,7.975,0,0,1,1.276.19c1.561.539,3.11,1.116,4.7,1.563.668.19,1.406.8,1.943.638.957-.281,1.388.448,2.065.651.923.276,1.834.6,2.769.828,2.506.62,4.944,1.459,7.425,2.172q2.469.718,4.928,1.464c1.265.383,2.523.8,3.79,1.171.638.191.49.415.094.741q-3.761,3.111-7.51,6.23c-1.435,1.187-1.435,1.187-.194,2.606q5.082,5.795,10.168,11.584c1.571,1.783,3.165,3.547,4.739,5.329q5.851,6.619,11.693,13.248,5.488,6.22,10.978,12.431,8.34,9.441,16.682,18.877c2.045,2.31,4.107,4.6,6.155,6.908l-3.171,3-9.017-10.23q-7.656-8.677-15.337-17.343c-.4-.45-.808-.888-1.2-1.348a.442.442,0,0,0-.731-.051c-1.595,1.348-3.212,2.683-4.817,4.024a3.191,3.191,0,0,0-.259.274,6.382,6.382,0,0,0,.386.538q6.823,7.734,13.656,15.464c1.882,2.126,3.836,4.19,5.677,6.35,2.1,2.458,4.233,4.881,6.38,7.3l-2.011,1.9c-.08-.093-.159-.184-.242-.274q-7.1-8.028-14.2-16.052-5.708-6.455-11.406-12.919c-.344-.391-.575-.5-.992-.1-.553.534-1.176,1-1.755,1.509-1.089.979-2.306,1.806-3.349,2.836-.4.391-.694.419-.865-.278-.493-2.032-1.061-4.048-1.595-6.072q-1.378-5.273-2.744-10.551c-.044-.175-.247-.387-.048-.515.125-.078.374,0,.554.059,1.109.336,2.212.687,3.319,1.029q5.814,1.793,11.629,3.574c.621.19,1.26.319,2.05.517-.219-.308-.319-.479-.439-.613q-7.308-8.272-14.625-16.537-9.694-10.975-19.375-21.962c-.405-.461-.668-.447-1.109-.073q-3.132,2.67-6.307,5.289a32.318,32.318,0,0,1-2.81,2.261c-.182-.682-.346-1.285-.506-1.892q-1.213-4.6-2.424-9.213c-.828-3.166-1.645-6.334-2.477-9.5-.587-2.233-1.188-4.466-1.783-6.7C3904.915,1673.941,3904.856,1673.745,3905.206,1673.8Z" transform="translate(-14659.996 -8373.878)" fill="#fff0f8"/>
    <path id="Path_5637" data-name="Path 5637" d="M3621.638,1216.481q5.916,6.709,11.839,13.414,4.718,5.345,9.428,10.687l-3.472,2.826-3.8-4.292-17.111-19.346q-6.085-6.889-12.149-13.8c-.381-.432-.767-.86-1.155-1.287l-5.922-6.715c-.571-.656-1.127-1.292-1.686-1.925a.254.254,0,0,0-.038-.03l-.491-.558a.282.282,0,0,0-.084-.094l-.625-.71a.59.59,0,0,0-.021-.11c-.129-.638-1.059-.8-.844-1.56.018-.061,0-.069-.049,0-.169.195-.282.249-.364.23l-.16-.185a1.157,1.157,0,0,0-.174-.34c-.278-.243-.542-.5-.8-.761l-1.731-1.963c-.178-.209-.357-.416-.539-.622q-1.314-1.48-2.624-2.964l-8.286-9.4h0q-1.318-1.495-2.635-2.989-5.439-6.168-10.88-12.334-5.344-6.075-10.673-12.159c-2.191-2.488-4.41-4.944-6.6-7.437q-7.159-8.114-14.3-16.237c-2.734-3.1-5.485-6.19-8.205-9.305-.4-.455-.664-.467-1.116-.086-1.495,1.276-2.924,2.614-4.466,3.828s-2.942,2.562-4.5,3.739c-.458.346-.609.3-.749-.242-.368-1.443-.786-2.871-1.166-4.314-.807-3.072-1.6-6.147-2.407-9.219-.825-3.141-1.666-6.276-2.489-9.41-.434-1.651-.837-3.311-1.276-4.962-.11-.415,0-.571.41-.448a55.71,55.71,0,0,1,5.45,1.708,26.9,26.9,0,0,0,3.544,1.117c1.764.461,3.495,1.042,5.264,1.453,1.311.3,2.541.85,3.841,1.194.878.233,1.778.432,2.631.747q1.526.563,3.083,1.026l6.38,1.914c.467.14.455.34.105.627-.784.638-1.521,1.338-2.342,1.924-.884.638-1.547,1.5-2.45,2.125-.479.329-.887.876-1.383,1.2a27.121,27.121,0,0,0-2.911,2.357c-.3.258-.308.491-.014.818,2.892,3.224,5.785,6.445,8.634,9.706,2.45,2.8,4.954,5.559,7.412,8.355q3.491,3.972,6.954,7.975c2.664,3.064,5.318,6.141,8.115,9.091,1.552,1.635,2.9,3.458,4.44,5.1a32.429,32.429,0,0,0,2.483,2.791,7.952,7.952,0,0,1,1.436,1.563,36.1,36.1,0,0,0,2.624,3.072q2.739,3.294,5.685,6.429c1.4,1.488,2.668,3.09,4.016,4.626q7.006,7.965,14.025,15.918l12.006,13.623Q3615.2,1209.172,3621.638,1216.481Z" transform="translate(-14252.884 -7887.708)" fill="#fff0f8"/>
    <path id="Path_5638" data-name="Path 5638" d="M775.871,2655.106s-219.719-134.446-269.759-119.6c-54.185,16.076,269.759,194.076,269.759,194.076" transform="translate(-10905.871 -9097.186)" fill="url(#linear-gradient)"/>
    <path id="Path_5639" data-name="Path 5639" d="M2070.472,3284.454s-188.572-143.942-239.283-131.587c-71.775,17.491,128.227,131.587,128.227,131.587" transform="translate(-12410.316 -9616.406)" fill="url(#linear-gradient-2)"/>
    <path id="Path_5640" data-name="Path 5640" d="M1000.171,2577.768S604.258,2318.714,557.118,2314.1c-38.553-3.774-72.573-7.041-49.75,13.97,73.113,67.328,363.432,249.7,363.432,249.7" transform="translate(-11130.171 -8909.722)" fill="url(#linear-gradient-3)"/>
    <path id="Path_5641" data-name="Path 5641" d="M883.084,1228.374s176.35-9.749,272.895-83.446c110.862-84.628,282.006-186.572,297.235-83.045s0,169.687,0,169.687Z" transform="translate(-11651.084 -7822.827)" fill="#fff0f8"/>
    <path id="Path_5642" data-name="Path 5642" d="M2896.9,1963.172s1.73,10.27-26.956,1.426l-16.156-6.978,2.907,10.757s22.51,12.768,33.922,11.628S2896.9,1963.172,2896.9,1963.172Z" transform="translate(-13403.479 -8612.435)" fill="#ffb206"/>
    <path id="Path_5643" data-name="Path 5643" d="M2872.37,1996.5s-11.305,2.452-17.16,10.318l4.772,1.448,16.119-9.438-.927-6.4A3.648,3.648,0,0,1,2872.37,1996.5Z" transform="translate(-13381.757 -8641.692)" fill="#f2a100"/>
    <path id="Path_5644" data-name="Path 5644" d="M2540.281,2668.26c.214.471,3.066,7.681,3.066,7.681l-6.846,3.772-5.921-9.411Z" transform="translate(-12997.224 -9209.728)" fill="#fac2ae"/>
    <path id="Path_5645" data-name="Path 5645" d="M2846.993,2667.9s-20.142-4.851-19.952,0,18.309,12.677,20.446,13.5c4.587,1.775,8.653-1.682,8.653-1.682v-12.392Z" transform="translate(-13357.303 -9207.613)" fill="#000509"/>
    <path id="Path_5646" data-name="Path 5646" d="M2585.956,2262.51a18.575,18.575,0,0,1,8.559,15.79v27.723s8.154,10.784,11.291,24.1c0,0-4.538-1.632-7.225,4.945,0,0-16.76-17.767-18.853-24.518s-3.137-24.059-3.137-24.059-16.167,9.889-19.21,14.264c0,0-1.046,1.141,1.807,5.278s2.193,24.665,2.193,24.665-2.7,4.944-10.1-1.711c0,0-8.825-23.679-8.731-31.1s14.741-30.05,14.741-30.05Z" transform="translate(-13061.593 -8868.694)" fill="#062051"/>
    <path id="Path_5647" data-name="Path 5647" d="M2524.239,2700.458s-5.76-1.657-7.975,5.832-11.2,2.424-12.053,4.349-.713,4.565,2.711,6.135,13.124-.927,16.618-5.064,5.847-2.941,5.847-2.941S2527.217,2701.243,2524.239,2700.458Z" transform="translate(-12978.988 -9236.658)" fill="#000509"/>
    <path id="Path_5648" data-name="Path 5648" d="M2524.417,2736.889a4.606,4.606,0,0,0-1.276-2.074c-1.085-.737-3.053-1.5-4.479,1.255-2.073,3.987-9.028,9.659-15.5,9.466,0,0,7.439,3.943,14.856-.408C2524.561,2741.3,2525,2739.02,2524.417,2736.889Z" transform="translate(-12974.109 -9265.089)" fill="#263138"/>
    <circle id="Ellipse_444" data-name="Ellipse 444" cx="53.062" cy="53.062" r="53.062" transform="translate(-10639.658 -6674.082)" fill="#fc368c"/>
    <path id="Path_5649" data-name="Path 5649" d="M1900.832,2261.493l-64.473-29.383-2,60.479,66.471,36.232Z" transform="translate(-12243.662 -8843.144)" fill="#2638f1"/>
    <path id="Path_5650" data-name="Path 5650" d="M1634.244,2096.806l-61.907-25.676-52.777,25.676,64.473,29.383Z" transform="translate(-11926.863 -8707.84)" fill="#4353ff"/>
    <path id="Path_5651" data-name="Path 5651" d="M1519.56,2328.821l50.211-30.811v-65.9l-50.211,29.383Z" transform="translate(-11862.391 -8843.144)" fill="#1023eb"/>
    <path id="Path_5652" data-name="Path 5652" d="M1652.765,2352.71s6.106,1.447,5.3,4.248a54.025,54.025,0,0,0-1.179,8.24c4.785,5.583,17.7,14.441,17.7,14.441l-1.914,5.8s-7.46-5.313-11.006-8.218-7.935-11.051-7.935-11.051h0c-1.368-1.755-1.454-4.029-1.544-5.921-.116-2.491-2.2-2.609-3.082-5.026S1652.765,2352.71,1652.765,2352.71Z" transform="translate(-11987.857 -8944.508)" fill="#ffe7e5"/>
    <path id="Path_5653" data-name="Path 5653" d="M1518.314,2144.652s-11.221-3.281-10.7,11.744c0,0-1.711,4.279-2.568,4.565,0,0-2.273,1.68,2.871,1.823,0,0-.517,3.121,3.031,6.023,1.766,1.436,5.378.9,9.651,1.236v6.847l8.559-2a21.625,21.625,0,0,1,0-14.693C1532.014,2152.069,1518.314,2144.652,1518.314,2144.652Z" transform="translate(-11819.776 -8769.38)" fill="#ffe7e5"/>
    <path id="Path_5654" data-name="Path 5654" d="M1499.86,2315.72s1.785,5.271,7.815.722l1.889,5.177-9.7-.692Z" transform="translate(-11799.042 -8913.418)" fill="#fcc1c0"/>
    <path id="Path_5655" data-name="Path 5655" d="M1513.883,2166.568s1.412-.431,1.459.947-1.159,2.6,6.528,8.478l2.617.236s2.493-2.246,3.712.606c0,0,.73,2.542-.209,3.425s-.957,2.625,2.662,4.57,2.89,1.707,2.89,1.707l-.1-1.357-.748-14.239-14.454-6.8-3.988,1.445Z" transform="translate(-11825.317 -8786.015)" fill="#fcc1c0"/>
    <path id="Path_5656" data-name="Path 5656" d="M1607.495,2306.825a65.678,65.678,0,0,1-1.807-10.032c-.142-3.567-7.8-2.9-7.8-2.9s-5.23,1.855-3.281,4.327,4.048-.054,5.142,2.8,2.8,8.328,7.029,9.23S1607.495,2306.825,1607.495,2306.825Z" transform="translate(-11913.387 -8895.029)" fill="#ffe7e5"/>
    <path id="Path_5657" data-name="Path 5657" d="M1643.638,2346.046a60.728,60.728,0,0,0-5.863-4.019s-1-.852.957-.662a21.741,21.741,0,0,1,3.565.662Z" transform="translate(-11955.073 -8934.948)" fill="#ffe7e5"/>
    <path id="Path_5658" data-name="Path 5658" d="M2691.55,2392.084a20.349,20.349,0,0,0,5.444-3.924s-2.959,8.176-4.581,14.18Z" transform="translate(-13176.546 -8974.303)" fill="#051633"/>
    <path id="Path_5659" data-name="Path 5659" d="M3165.248,2064.96s-4.707-.855-6.2-4.35-3.137-8.986-4.565-5.423a9.09,9.09,0,0,0,.286,6.919s.214,2.782,1.641,4.136a4.1,4.1,0,0,0,3.495.856l6.133,2.353Z" transform="translate(-13719.331 -8693.469)" fill="#ffe7e5"/>
    <path id="Path_5660" data-name="Path 5660" d="M2805.505,1865.44s-3.519,3.329-3.519,7.892c0,0-.571,2.188-2.093,2.853,0,0-1.046,1.332,2.377,2.282,0,0-.911,2.568.354,3.9s10.868,3.329,10.868,3.329l1.807,11.7s9.447-1.955,7.766-7.3-3.2-5.8-3.2-5.8,1.809-13.519-2.089-16.183S2805.505,1865.44,2805.505,1865.44Z" transform="translate(-13320.076 -8534.957)" fill="#fac2ae"/>
    <path id="Path_5661" data-name="Path 5661" d="M2792.257,1991.841s.841-.568.957.857c.179,2.073,1.412,5.929,5.742,5.919,2.073,0,2.262-2.766,2.262-2.766s3.492.651,1.257,2.932-9.2.238-9.2.238l-.1-.783Z" transform="translate(-13298.837 -8641.104)" fill="#f1a080"/>
    <path id="Path_5662" data-name="Path 5662" d="M1506.6,2123.463s-7.632-6.206-14.479-2.426-10.412,3.35-10.412,3.35,2.139,4.136,10.27,4.136c0,0-2.211,3.71.857,6.135a25.817,25.817,0,0,1,5.278,6.133s2.852-4.921,3.85-3.349,2.073,3.349-.214,4.849,6.525,5.634,6.525,5.634,2.461-7.2,4.6-10.482S1511.949,2123.605,1506.6,2123.463Z" transform="translate(-11800.147 -8748.761)" fill="#102552"/>
    <path id="Path_5663" data-name="Path 5663" d="M1157.074,3025.786l-6.541-10.556-5.563.571,6.053,11.554Z" transform="translate(-11389.947 -9501.355)" fill="#fac2ae"/>
    <path id="Path_5664" data-name="Path 5664" d="M1561.706,2966.975s-13.149-3.166-13.025,0,11.953,8.276,13.348,8.815c3,1.158,5.65-1.1,5.65-1.1v-8.09Z" transform="translate(-11864.943 -9459.614)" fill="#000509"/>
    <path id="Path_5665" data-name="Path 5665" d="M1213.366,2575.07s7.916,30.6,10.484,34.876,17.109,28.46,20.907,39.371c0,0-1.689,2.088-8.889,2.019,0,0-17.826-18.223-27.209-30.05-5.753-7.25-10.7-26.745-10.7-26.745s-12.837,5.991-26.745,10.911l10.4,32.935s.214,2.5-5.973.373c0,0-21.971-24.871-22.809-34.793-.625-7.337,40.85-28.9,40.85-28.9Z" transform="translate(-11478.883 -9131.401)" fill="#062051"/>
    <path id="Path_5666" data-name="Path 5666" d="M1358.23,2608.676s18.4,11.825,34.894-4.616l-33.064,3.544Z" transform="translate(-11660.012 -9155.768)" fill="#051633"/>
    <path id="Path_5667" data-name="Path 5667" d="M1148.955,3071.172a2.139,2.139,0,0,1-.6-.048c-2.057-.479-14.267-3.145-14.141.069.139,3.509,13.238,9.171,14.792,9.77a6.172,6.172,0,0,0,5.149-.491,2.111,2.111,0,0,0,1.116-1.863v-5.583a2.114,2.114,0,0,0-2.246-2.11Z" transform="translate(-11386.425 -9547.08)" fill="#000509"/>
    <path id="Path_5668" data-name="Path 5668" d="M1378.566,2316.448s-.608,3.557-7.816,3.349c0,0-.855-.571-1.711,1.142s-7.235,1.547-8.234,3.259-2.678,23.628-2.678,23.628l-16.976-14.834s-4.849,3.066-4.493,6.418c0,0,17.9,25.533,28.029,22.18a10.863,10.863,0,0,0,3.78-4.208l1.512,7.884s14.274,3.98,23.4,1.126,13.109-7.2,13.109-7.2S1388.444,2309.181,1378.566,2316.448Z" transform="translate(-11669.937 -8913.423)" fill="#fc368c"/>
    <path id="Path_5669" data-name="Path 5669" d="M3134.652,2079.27s-26.563,70.02-80.053,45.2c0,0-17.545-9.058-22.681-18.578,0,0,7.133,41.117,54.49,40.832C3086.408,2146.726,3147.031,2141.448,3134.652,2079.27Z" transform="translate(-13670.16 -8714.682)" fill="#e40063"/>
    <path id="Path_5670" data-name="Path 5670" d="M1408.23,2687.627l4.755-1.807,1.306,20.076S1408.516,2691.431,1408.23,2687.627Z" transform="translate(-11689.154 -9224.486)" fill="#051633"/>
    <path id="Path_5671" data-name="Path 5671" d="M1563.459,2765.161a2.289,2.289,0,0,1-3.067,0c-1.855-1.284,4.34,14.012,11.656,27.19C1572.048,2792.347,1563.817,2767.372,1563.459,2765.161Z" transform="translate(-11871.128 -9291.109)" fill="#051633"/>
    <path id="Path_5672" data-name="Path 5672" d="M1531.668,2462.146s1.711-11.341,1.142-20.183c0,0,1.426-5.278,3.281,3.423s2.539,25.839,2.539,25.839l-5.45-1.19-1.829-7.28" transform="translate(-11833.13 -9018.191)" fill="#e40063"/>
    <path id="Path_5673" data-name="Path 5673" d="M1619.131,2456.466a5.644,5.644,0,0,1,2.972,2.592c1.376,2.187-1.978-14.068-1.978-14.068Z" transform="translate(-11930.936 -9022.069)" fill="#d82723"/>
    <path id="Path_5674" data-name="Path 5674" d="M2701.277,1983s6.087-2.686,11.221,10.152,17.118,34.8,17.118,34.8-6.562,14.55-33.378,7.988c0,0-2.89-.286-4.868-4.279s-4.964-21.746-4.964-21.746-17.84,10.332-23.833,8.9-17.972-6.276-17.972-6.276l1.711-9.128,21.557,3.659s18.1-17.352,24.946-16.783S2709.55,1996.122,2701.277,1983Z" transform="translate(-13201.679 -8633.568)" fill="#fec435"/>
    <path id="Path_5675" data-name="Path 5675" d="M2792.066,1823.745c.568-2.1.681-4.453-1.376-5.005a4.983,4.983,0,0,0-3.233-5.991c-4.469-1.9-14.644,2.282-18.162-3.137s-5.9,5.991,2.662,10.46,3.8,8.178,3.8,8.178,2.243-2.852,3.5-.665.59,6.64,2.491,7.608c1.715.872,4.131-1.536,7.733-6.279A15.086,15.086,0,0,0,2792.066,1823.745Z" transform="translate(-13283.864 -8486.832)" fill="#102552"/>
    <path id="Path_5676" data-name="Path 5676" d="M3190.8,2090.528s-.5-1.855,0-2.711-1.26-1.354-1.356,2.14S3190.8,2090.528,3190.8,2090.528Z" transform="translate(-13749.856 -8721.342)" fill="#ffe7e5"/>
    <path id="Path_5677" data-name="Path 5677" d="M2721.1,2927.016s-11.3-1.5-15.25-3.987-8.135-8.669-8.135-8.669l.565,9.487s-1.31,7.1,21.88,9.972Z" transform="translate(-13201.64 -9416.574)" fill="#f1a080"/>
    <path id="Path_5678" data-name="Path 5678" d="M2592.527,2828a5.3,5.3,0,0,0-5.252,5.337c-.255,5.337,9.064,7.37,9.064,7.37Z" transform="translate(-13059.259 -9343.989)" fill="#050530"/>
    <path id="Path_5679" data-name="Path 5679" d="M2628.385,2989.106l-15.093-3.166s-3.795,2.828-2.552,10.537,17.085,8.98,17.085,8.98Z" transform="translate(-13095.008 -9476.737)" fill="#041b3f"/>
    <path id="Path_5680" data-name="Path 5680" d="M2256.739,3653.347l-5.071-13.853-6.608-.675,4.26,14.9Z" transform="translate(-12665.076 -10025.483)" fill="#e07d5a"/>
    <path id="Path_5681" data-name="Path 5681" d="M2672.175,3573.777l-2.429-10.353-6.726-1.214,3.423,13.414Z" transform="translate(-13147.177 -9961.093)" fill="#e07d5a"/>
    <path id="Path_5682" data-name="Path 5682" d="M3219.409,2882.3l-69.526-31.686-2.154,65.219,71.679,39.07Z" transform="translate(-13771.722 -9362.992)" fill="#0db6d2"/>
    <path id="Path_5683" data-name="Path 5683" d="M2931.94,2704.708l-66.757-27.687-56.913,27.688,69.526,31.687Z" transform="translate(-13430.109 -9217.09)" fill="#1ccbe2"/>
    <path id="Path_5684" data-name="Path 5684" d="M2808.27,2954.9l54.144-33.226V2850.61L2808.27,2882.3Z" transform="translate(-13360.584 -9362.992)" fill="#0791b4"/>
    <path id="Path_5685" data-name="Path 5685" d="M2313.308,3205.83s8.05,31.115,10.661,35.467,19.343,29.946,23.212,41.042c0,0-3.558,4.252-10.715,1.333,0,0-18.4-18.821-27.945-30.844-5.852-7.373-10.88-27.2-10.88-27.2s-13.055,6.093-27.2,11.1l10.58,31.551s-1.509,3.873-7.8,1.71c0,0-20.615-24.679-21.475-34.771-.638-7.466,41.542-29.386,41.542-29.386Z" transform="translate(-12756.584 -9661.555)" fill="#0db6d2"/>
    <path id="Path_5686" data-name="Path 5686" d="M2482.079,3240.261l1.225,4.514s-8.867,8.932-38.344-2.962l5.708-3.243Z" transform="translate(-12923.525 -9689.072)" fill="#0791b4"/>
    <path id="Path_5687" data-name="Path 5687" d="M2670.659,3629.218s-13.371-3.22-13.238,0,12.155,8.417,13.573,8.964c3.046,1.179,5.742-1.116,5.742-1.116v-8.227Z" transform="translate(-13150.845 -10016.21)" fill="#000509"/>
    <path id="Path_5688" data-name="Path 5688" d="M2244.3,3710.354s-14.818-3.568-14.674,0,13.465,9.329,15.034,9.935c6.911,2.662,8.832-1.348,8.832-1.348l-2.464-9.007Z" transform="translate(-12659.373 -10084.274)" fill="#000509"/>
    <path id="Path_5689" data-name="Path 5689" d="M2565.6,2837.61a17.564,17.564,0,0,0-9.889,4.2,12.483,12.483,0,0,1-4.956,2.552s-1.447.344,1.445,3.03a23.583,23.583,0,0,0-1.376,4.889c-.431,4.819.9,4.4,9.707,9.431l3.235,6.954,8.675,1.721s-4.75-5.3-3.855-12.462S2567.715,2837.747,2565.6,2837.61Z" transform="translate(-13029.475 -9352.066)" fill="#f1a080"/>
    <path id="Path_5690" data-name="Path 5690" d="M2557.76,2988.676s.617-.089,1.825,1.563.03,4.415,8.052,4.053l.863,1.888s-7.422-.373-8.36-2.393Z" transform="translate(-13026.713 -9479.036)" fill="#e07d5a"/>
    <path id="Path_5691" data-name="Path 5691" d="M2573.431,2835.931s1.772,1.79.319,5.439,1.514,7.986,1.514,7.986,2.073-1.239,3.168-.689a2.1,2.1,0,0,1,.619,2.892c-.552.55-2.34,2.2,2.479,7.71l-.55-14.113-3.954-10.947Z" transform="translate(-13042.229 -9349.209)" fill="#e07d5a"/>
    <path id="Path_5692" data-name="Path 5692" d="M2510.032,2821.926s3.442.413,2.271,6.677-.276,8.951-.276,8.951,2.617-2.755,3.856-1.584,1.1,3.718,0,4.466,2.408,7.018,2.408,7.018,12.186-2.96,9.776-12.323c0,0,.989-9.226-2.711-11.567S2513.129,2818.208,2510.032,2821.926Z" transform="translate(-12978.984 -9337.414)" fill="#050530"/>
    <path id="Path_5693" data-name="Path 5693" d="M2530.21,3323.6s3.113-2.323,3.791-.544,1.332,16.563,1.332,16.563S2531.076,3328.208,2530.21,3323.6Z" transform="translate(-12989.151 -9759.521)" fill="#0b6277"/>
    <path id="Path_5694" data-name="Path 5694" d="M2741.68,2901.165s7.425-.638,7.562,2.813a63.757,63.757,0,0,0,1.755,9.729c7.477,4.515,25.346,9.688,25.346,9.688v7.257s-10.395-3.211-15.471-5.163-13.071-9.508-13.071-9.508h0c-2.2-1.477-3.144-4-3.948-6.1-1.061-2.768-3.459-2.122-5.35-4.52S2741.68,2901.165,2741.68,2901.165Z" transform="translate(-13263.316 -9405.444)" fill="#f1a080"/>
    <path id="Path_5695" data-name="Path 5695" d="M2769.265,3051.69s-2.7,2.083-9.926.357l12.088,4.543Z" transform="translate(-13261.793 -9532)" fill="#e07d5a"/>
    <path id="Path_5696" data-name="Path 5696" d="M2474.564,3014.472s-.582,1.93-9.525-1.142c0,0-1.914,3.365-5.045,4.381s-16.968-2.812-16.968-2.812-5.144,7.9-2.179,12.81l14.993,5.423.593,17.113s27.619,11.521,36.77-.761c0,0,1.863-1.525-.34-6.858S2474.988,3009.028,2474.564,3014.472Z" transform="translate(-12933.357 -9499.759)" fill="#062051"/>
    <path id="Path_5697" data-name="Path 5697" d="M2848.64,2152.748s3.27-.936,4.126,5.482a68.4,68.4,0,0,0,6.54,20.735s-6.4,1.037-8.043-12.88Z" transform="translate(-13363.913 -8776.399)" fill="#f8753f"/>
  </g>
</svg>
